<?xml version="1.0" encoding="utf-8"?>
<!-- Generator: Adobe Illustrator 23.0.3, SVG Export Plug-In . SVG Version: 6.00 Build 0)  -->
<svg version="1.1" id="Layer_1" xmlns="http://www.w3.org/2000/svg" xmlns:xlink="http://www.w3.org/1999/xlink" x="0px" y="0px"
	 viewBox="0 0 720 720" style="enable-background:new 0 0 720 720;" xml:space="preserve">
<style type="text/css">
	.st0{fill:none;stroke:#FFFFFF;stroke-width:35.0651;stroke-miterlimit:10;}
	.st1{fill:none;stroke:#FFFFFF;stroke-width:42.8573;stroke-miterlimit:10;}
	.st2{fill:#FFFFFF;}
</style>
<g>
	<path d="M680.4,525.81c0,77.46-62.5,140.26-139.59,140.26H178.4c-77.09,0-139.59-62.8-139.59-140.26V166.07
		c0-77.46,62.5-140.26,139.59-140.26h362.41c77.09,0,139.59,62.8,139.59,140.26V525.81z"/>
	<g>
		<path class="st0" d="M574.99,449.23c0,65.84-53.38,119.22-119.22,119.22H263.43c-65.84,0-119.22-53.38-119.22-119.22V243.99
			c0-65.84,53.38-119.22,119.22-119.22h192.34c65.84,0,119.22,53.38,119.22,119.22V449.23z"/>
		<path class="st1" d="M465.36,345.94c-1.28,58.4-47.35,105.76-105.76,105.76s-105.76-47.35-105.76-105.76
			s47.38-107.46,105.76-105.76C430.72,242.26,466.64,287.74,465.36,345.94z"/>
		<circle class="st2" cx="489.87" cy="215.17" r="29.66"/>
	</g>
</g>
</svg>
